# xmcd CD database file
#
# Track frame offsets:
#	150
#	97956
#	171152
#	232161
#	274943
#
# Disc length: 4292 seconds
#
# Revision: 1
# Processed by: cddbd v1.5.2PL0 Copyright (c) Steve Scherf et al.
# Submitted via: CDex 1.70beta2
#
DISCID=3f10c205
DTITLE=Various Artist - Jazz Roads CD 396 - Bebop - Bebop Live Concerts Vol.7 (1947)
DYEAR=1900
DGENRE=Jazz
TTITLE0=The Bopland Boys - Cherokee (Jeronimo)
TTITLE1=The Bopland Boys - After Hours Bop
TTITLE2=Bill Harris All Stars - What Is This Thing Called Love
TTITLE3=Bill Harris All Stars - A Knight In The Village
TTITLE4=Bill Harris All Stars - Just You, Just Me
EXTD=
EXTT0=
EXTT1=
EXTT2=
EXTT3=
EXTT4=
PLAYORDER=
